/* XPM */
static char * jeliza_xpm[] = {
"32 32 5 1",
" 	c None",
".	c #FFFFFF",
"+	c #0000FF",
"@	c #FF0000",
"#	c #000000",
"................................",
"................................",
"................................",
"................................",
"...++.+++++.++.++...............",
"...++.++....++..................",
"...++.++....++.++.++++.+++......",
"...++.+++++.++.++...++...++.....",
"...++.++....++.++..++...+++.....",
"...++.++....++.++..++..+.++.....",
".+.++.++....++.++.++...+.++.....",
"..++..+++++.++.++.++++.++++.....",
"................................",
".@@@@@@@@@@@@@@@@@@@@@@@@@@.....",
"................................",
"...@@@@@@@@@@@@@@@@@@@@@@.......",
"................................",
"................................",
"................................",
"................................",
"..........##..##.##.............",
"..........##.##..##.............",
"..........##.##..##.............",
"..........####...##.............",
"..........#####..##.............",
"..........##.##..##.............",
"..........##..##.##.............",
"..........##..##.##.............",
"..........##..##.##.............",
"................................",
"................................",
"................................"};
